<svg width="242" height="206" viewBox="0 0 242 206" fill="none" xmlns="http://www.w3.org/2000/svg">
<path d="M240.46 48.4477C240.449 48.4372 240.439 48.4273 240.429 48.4168L198.459 6.978C196.375 4.8946 192.998 4.8946 190.914 6.978C188.831 9.06139 188.831 12.4388 190.914 14.5221L229.06 52.7733L89.1239 192.39L12.8347 116.1L116.007 12.8218L164.671 61.592L98.3689 127.894L77.1181 106.643L110.375 73.5983C112.459 71.5149 112.459 68.1376 110.375 66.0542C108.292 63.9708 104.914 63.9708 102.831 66.0542L65.961 102.605C63.8776 104.671 63.8642 108.035 65.9301 110.119C65.9406 110.129 65.9505 110.139 65.961 110.15L94.6494 138.838C96.7154 140.921 100.079 140.935 102.163 138.869C102.173 138.858 102.183 138.849 102.194 138.838L175.933 65.4172C178.017 63.3512 178.03 59.9873 175.964 57.9039C175.954 57.8934 175.944 57.8835 175.933 57.873L119.725 1.55908H119.088C117.292 0.10075 114.721 0.10075 112.925 1.55908H112.288L1.57149 112.381C-0.511902 114.447 -0.525349 117.811 1.54061 119.895C1.55107 119.905 1.56103 119.915 1.57149 119.926L85.1927 203.653C87.2587 205.737 90.6226 205.75 92.706 203.684C92.7164 203.674 92.7264 203.664 92.7369 203.653L240.429 55.9614C242.512 53.8945 242.526 50.5311 240.46 48.4477Z" fill="white"/>
</svg>
