<?xml version="1.0" encoding="iso-8859-1"?>
<!-- Generator: Adobe Illustrator 19.0.0, SVG Export Plug-In . SVG Version: 6.00 Build 0)  -->
<svg version="1.1" id="Capa_1" xmlns="http://www.w3.org/2000/svg" xmlns:xlink="http://www.w3.org/1999/xlink" x="0px" y="0px"
	 viewBox="0 0 485.884 485.884" style="enable-background:new 0 0 485.884 485.884;" xml:space="preserve">
<g>
	<g>
		<path d="M482.79,133.724c-0.021-0.021-0.041-0.041-0.062-0.062l-84.267-83.2c-4.183-4.183-10.964-4.183-15.147,0
			c-4.183,4.183-4.183,10.964,0,15.147l76.587,76.8l-280.96,280.32L25.769,269.555l207.147-207.36l97.707,97.92l-133.12,133.12
			l-42.667-42.667l66.773-66.347c4.183-4.183,4.183-10.964,0-15.147s-10.964-4.183-15.147,0l-74.027,73.387
			c-4.183,4.148-4.21,10.902-0.062,15.085c0.021,0.021,0.041,0.041,0.062,0.062l57.6,57.6c4.148,4.183,10.902,4.21,15.085,0.062
			c0.021-0.021,0.041-0.041,0.062-0.062l148.053-147.413c4.183-4.148,4.21-10.902,0.062-15.085
			c-0.021-0.021-0.041-0.041-0.062-0.062L240.382,39.582h-1.28c-3.605-2.928-8.768-2.928-12.373,0h-1.28L3.155,262.089
			c-4.183,4.148-4.21,10.902-0.062,15.085c0.021,0.021,0.041,0.041,0.062,0.062l167.893,168.107
			c4.148,4.183,10.902,4.21,15.085,0.062c0.021-0.021,0.041-0.041,0.062-0.062L482.728,148.81
			C486.911,144.66,486.939,137.907,482.79,133.724z"/>
	</g>
</g>
<g>
</g>
<g>
</g>
<g>
</g>
<g>
</g>
<g>
</g>
<g>
</g>
<g>
</g>
<g>
</g>
<g>
</g>
<g>
</g>
<g>
</g>
<g>
</g>
<g>
</g>
<g>
</g>
<g>
</g>
</svg>
