<?xml version="1.0" standalone="no"?>
<!DOCTYPE svg PUBLIC "-//W3C//DTD SVG 20010904//EN"
 "http://www.w3.org/TR/2001/REC-SVG-20010904/DTD/svg10.dtd">
<svg version="1.0" xmlns="http://www.w3.org/2000/svg"
 width="226.000000pt" height="227.000000pt" viewBox="0 0 226.000000 227.000000"
 preserveAspectRatio="xMidYMid meet">

<g transform="translate(0.000000,227.000000) scale(0.100000,-0.100000)"
fill="#000000" stroke="none">
<path d="M1056 2111 c-3 -4 6 -6 19 -3 14 2 25 6 25 8 0 8 -39 4 -44 -5z"/>
<path d="M1047 2079 c-15 -11 -31 -37 -37 -57 -6 -23 -10 -366 -10 -919 -1
-839 1 -923 26 -923 2 0 -1 10 -7 23 -11 22 -11 22 15 -2 26 -24 34 -37 17
-27 -5 3 -11 0 -14 -7 -4 -10 77 -13 404 -13 225 1 401 4 392 8 -15 5 -14 7 5
7 30 1 82 53 83 83 0 22 1 22 10 3 6 -14 8 -2 4 40 -2 33 -8 440 -11 905 l-7
845 -28 27 -27 28 -395 0 c-383 0 -395 -1 -420 -21z m721 -341 c16 -14 16 -79
-1 -102 -12 -16 -14 -16 -26 -3 -10 12 -10 19 0 35 10 16 10 23 0 36 -17 20
-41 9 -41 -20 0 -33 -47 -35 -52 -2 -5 34 -38 37 -38 4 0 -14 5 -26 10 -26 7
0 7 -7 0 -21 -11 -20 -12 -20 -31 -3 -21 19 -25 64 -9 95 12 21 74 27 85 9 4
-7 14 -5 28 5 21 15 50 12 75 -7z m-75 -168 c37 -44 48 -49 45 -22 -4 45 2 62
22 62 17 0 20 -7 20 -52 0 -29 11 -88 25 -131 27 -84 51 -290 34 -295 -5 -2
-9 -9 -9 -15 0 -24 -54 -192 -65 -199 -6 -5 -6 -8 2 -8 8 0 12 -14 11 -38 0
-22 1 -43 5 -48 3 -5 -1 -23 -8 -40 -17 -42 -64 -61 -112 -46 -28 9 -42 8 -62
-3 -24 -13 -18 -14 77 -15 93 0 102 -2 102 -19 0 -21 -49 -31 -151 -31 -46 0
-59 3 -59 15 0 23 -25 28 -57 12 -44 -22 -146 -40 -194 -34 -73 9 -129 24
-147 39 -9 8 -25 18 -34 21 -10 4 -18 13 -18 22 0 8 -4 15 -9 15 -15 0 -47
105 -43 140 4 34 13 87 18 110 3 14 6 34 8 45 7 54 21 93 42 118 13 16 24 33
24 38 0 6 11 21 25 35 14 14 25 30 25 36 0 6 40 50 89 97 84 82 142 117 211
127 49 8 55 12 58 40 9 74 72 86 125 24z m85 -982 c1 -51 -3 -67 -20 -85 -30
-32 -91 -31 -123 2 -27 26 -33 73 -13 93 9 9 9 12 0 12 -7 0 -12 9 -12 20 0
18 7 20 84 20 l83 0 1 -62z m-27 -157 c75 -75 1 -203 -101 -172 -54 16 -75 44
-75 102 0 36 5 54 21 70 22 22 44 19 44 -5 0 -8 -7 -19 -15 -26 -24 -20 -18
-66 11 -89 33 -26 55 -26 85 -3 29 24 31 79 3 99 -18 13 -19 12 -22 -22 -3
-28 -7 -35 -20 -33 -13 2 -18 16 -20 56 l-3 52 31 0 c21 0 41 -9 61 -29z
m-744 -193 c-3 -8 -6 -5 -6 6 -1 11 2 17 5 13 3 -3 4 -12 1 -19z m96 -75 c-7
-2 -19 -2 -25 0 -7 3 -2 5 12 5 14 0 19 -2 13 -5z"/>
<path d="M1613 1554 c-3 -8 3 -23 13 -33 24 -22 86 -53 92 -46 3 3 0 5 -6 5
-6 0 -25 20 -42 45 -33 48 -47 55 -57 29z"/>
<path d="M1701 812 c-21 -24 -22 -27 -7 -30 29 -6 46 6 46 33 0 32 -9 31 -39
-3z"/>
<path d="M1662 598 c-7 -7 -12 -21 -12 -33 0 -29 19 -45 52 -45 25 0 48 23 48
49 0 33 -63 54 -88 29z"/>
<path d="M449 2017 c-27 -20 -41 -56 -34 -88 20 -89 155 -72 155 21 0 30 -6
43 -26 59 -30 23 -71 27 -95 8z"/>
<path d="M435 1785 c-51 -50 -11 -135 64 -135 10 0 30 9 45 21 34 27 37 88 4
119 -31 28 -83 26 -113 -5z"/>
<path d="M464 1590 c-28 -11 -54 -48 -54 -76 0 -29 34 -70 65 -78 29 -7 79 15
89 39 27 73 -34 143 -100 115z"/>
<path d="M324 525 c0 -159 2 -223 3 -142 2 82 2 212 0 290 -1 78 -3 12 -3
-148z"/>
<path d="M1893 194 c-17 -19 -28 -34 -24 -34 11 0 61 51 61 61 0 12 0 12 -37
-27z"/>
<path d="M362 185 c15 -16 29 -27 31 -24 3 2 -10 15 -27 28 l-31 24 27 -28z"/>
<path d="M428 153 c12 -2 30 -2 40 0 9 3 -1 5 -23 4 -22 0 -30 -2 -17 -4z"/>
<path d="M518 153 c7 -3 16 -2 19 1 4 3 -2 6 -13 5 -11 0 -14 -3 -6 -6z"/>
<path d="M588 153 c6 -2 18 -2 25 0 6 3 1 5 -13 5 -14 0 -19 -2 -12 -5z"/>
<path d="M713 153 c26 -2 68 -2 95 0 26 2 4 3 -48 3 -52 0 -74 -1 -47 -3z"/>
<path d="M868 153 c6 -2 18 -2 25 0 6 3 1 5 -13 5 -14 0 -19 -2 -12 -5z"/>
<path d="M968 153 c7 -3 16 -2 19 1 4 3 -2 6 -13 5 -11 0 -14 -3 -6 -6z"/>
</g>
</svg>
